<svg fill="none" height="139" viewBox="0 0 577 139" width="577" xmlns="http://www.w3.org/2000/svg"><path d="m19.139 41.8689-9.61662 9.4603-9.52238-9.4603 9.61665-9.4603zm23.3817-23.0419 16.4049 16.2979 9.6166-9.4603-16.4049-16.29796-9.6166-9.36664-9.5224 9.46031-16.4991 16.29799 9.6166 9.4603zm32.9983 13.5816-9.6167 9.4603 9.6167 9.4603 9.6166-9.4603zm-32.9983 32.3149-16.4049-16.2043-9.7109 9.4603 16.4048 16.2043 9.6167 9.4603 9.6167-9.4603 16.4991-16.2043-9.6166-9.4603zm0-13.488 9.6166-9.4603-9.6166-9.4603-9.5224 9.554zm101.4463.9367v-.0937c0-6.0883-3.394-9.1793-8.768-11.3336 3.394-1.8733 6.128-4.777 6.128-9.9287v-.0936c0-7.2123-5.94-11.8956-15.368-11.8956h-21.684v45.8965h22.25c10.559 0 17.442-4.1213 17.442-12.5513zm-12.822-19.5763c0 3.372-2.829 4.8707-7.354 4.8707h-9.523v-9.7413h10.183c4.337 0 6.788 1.686 6.788 4.777v.0936zm2.64 18.3586c0 3.372-2.735 4.9644-7.26 4.9644h-12.257v-10.0224h11.88c5.28 0 7.542 1.8734 7.542 4.9644v.0936zm31.678 13.769v-45.8965h-10.182v45.8965zm55.249 0v-45.8965h-10.088v28.2872l-21.874-28.2872h-9.522v45.8965h10.088v-29.1303l22.627 29.224h8.769zm56.851 0-19.988-46.1775h-9.522l-19.987 46.1775h10.465l4.337-10.2096h19.704l4.337 10.2096zm-18.668-19.1079h-12.445l6.223-14.893zm67.6 19.1079v-45.8965h-10.088v28.2872l-21.873-28.2872h-9.523v45.8965h10.088v-29.1303l22.628 29.224h8.768zm53.08-7.306-6.505-6.5566c-3.677 3.2783-6.977 5.4326-12.257 5.4326-8.014 0-13.482-6.5566-13.482-14.4246v-.0937c0-7.868 5.657-14.331 13.482-14.331 4.62 0 8.297 1.967 11.879 5.1517l6.506-7.4933c-4.337-4.215-9.617-7.025-18.479-7.025-14.331 0-24.325 10.678-24.325 23.6976v.0937c0 13.1133 10.183 23.6039 23.948 23.6039 8.956.0937 14.33-2.9973 19.233-8.0553zm43.746 7.306v-8.992h-25.267v-9.6476h22.062v-8.992h-22.062v-9.3666h24.984v-8.992h-35.166v45.8965h35.449z" fill="#f0b90b"/><g fill="#1e2026"><path d="m488.376 34.2812c0-9.3666-6.789-15.3613-17.537-15.3613h-18.29v45.7092h8.108v-14.7056h9.145c10.183 0 18.574-5.339 18.574-15.6423zm-8.297.1873c0 4.8707-3.866 8.2427-9.994 8.2427h-9.428v-16.4853h9.428c6.128 0 9.994 2.81 9.994 8.2426z"/><path d="m515.906 18.5449h-7.543l-20.27 46.0839h8.296l4.715-11.0526h21.873l4.714 11.0526h8.579zm4.054 27.9126h-15.934l7.92-18.2649z"/><path d="m558.616 46.3641 18.385-27.5379h-9.334l-13.105 20.2319-12.917-20.2319h-9.522l18.385 27.7252v18.0776h8.202v-18.2649z"/><path d="m125.865 115.302-15.368-22.6672h-6.788v45.7092h7.165v-32.502l14.142 20.606h1.509l14.142-20.606v32.502h7.26v-45.7092h-6.789z"/><path d="m165.275 118.674h23.948v-6.744h-23.948v-12.4576h26.682v-6.8376h-33.941v45.7092h34.318v-6.838h-27.059z"/><path d="m236.833 106.778c0-8.4296-6.788-14.1432-16.97-14.1432h-19.988v45.7092h7.26v-16.86h10.748l12.728 16.86h9.051l-13.765-18.171c6.882-1.874 10.936-6.744 10.936-13.395zm-7.354.188c0 4.777-3.96 7.774-10.088 7.774h-12.256v-15.2676h12.35c6.412 0 9.994 2.7166 9.994 7.4936z"/><path d="m279.732 126.262c-3.771 3.56-7.448 5.901-13.293 5.901-8.957 0-15.745-7.212-15.745-16.766 0-9.46 6.788-16.6727 15.745-16.6727 4.902 0 8.768 1.6857 12.916 5.6197l.849.843 4.997-5.3387-.849-.843c-3.96-3.7467-8.957-7.2123-17.913-7.2123-13.294 0-23.288 10.21-23.288 23.604s9.9 23.51 23.099 23.51c9.145 0 14.425-4.027 18.385-7.961l.848-.843-4.902-4.777z"/><path d="m321.402 111.93h-22.91v-19.2952h-7.26v45.7092h7.26v-19.576h22.91v19.576h7.26v-45.7092h-7.26z"/><path d="m355.344 92.3535-21.025 45.9905h7.637l5.186-11.428h22.25l5.091 11.428h7.92l-21.025-45.9905zm11.125 27.7255h-16.31l8.202-18.078z"/><path d="m420.304 125.137-25.833-32.5022h-6.317v45.7092h7.166v-33.345l26.493 33.345h5.656v-45.7092h-7.165z"/><path d="m434.352 92.6348v6.8376h14.707v38.8716h7.354v-38.8716h14.708v-6.8376z"/></g></svg>